<?xml version="1.0" encoding="utf-8"?>
<!-- Generator: Adobe Illustrator 27.6.1, SVG Export Plug-In . SVG Version: 6.00 Build 0)  -->
<svg version="1.1" id="Layer_1" xmlns="http://www.w3.org/2000/svg" xmlns:xlink="http://www.w3.org/1999/xlink" x="0px" y="0px"
	 viewBox="0 0 102.63 105.51" style="enable-background:new 0 0 102.63 105.51;" xml:space="preserve">
<style type="text/css">
	.st0{fill:#008BCA;}
	.st1{fill:#ABD9ED;}
	.st2{fill:#9DD2E8;}
</style>
<g>
	<path class="st0" d="M90.77,27.15H77.36H38.58H26.99v11.59v0.27v11.87h11.87h38.5h13.41c6.55,0,11.87-5.31,11.87-11.87
		S97.32,27.15,90.77,27.15z"/>
	<path class="st1" d="M63.78,54.76H16.82h-5.22C5.19,54.76,0,59.95,0,66.35v0.27c0,6.55,5.31,11.87,11.87,11.87h4.95h46.96h11.87
		V54.76H63.78z"/>
	<g>
		<path class="st0" d="M26.99,93.64c0,6.55,5.31,11.87,11.87,11.87c6.55,0,11.87-5.31,11.87-11.87V82.37H26.99V93.64z"/>
	</g>
	<g>
		<path class="st2" d="M77.31,11.87C77.31,5.31,71.99,0,65.44,0c-6.55,0-11.87,5.31-11.87,11.87l0,11.27l23.73,0L77.31,11.87z"/>
	</g>
</g>
</svg>
